# xmcd
#
# Track frame offsets:
#	150
#	16793
#	33652
#	50179
#	66572
#	81278
#	98684
#	112634
#	126953
#
# Disc length: 2016 seconds
#
# Revision: 1
# Processed by: cddbd v1.5.2PL0 Copyright (c) Steve Scherf et al.
# Submitted via: audiograbber 1.83.01
#
DISCID=7407de09
DTITLE=Larry Weiss - LARRY WEISS - Black and Blue Suite
DYEAR=1968
DGENRE=Country
TTITLE0=Rhinestone Cowboy
TTITLE1=Sheldon
TTITLE2=She's Everything She Doesn't Want To Be
TTITLE3=Sweet Ophelia
TTITLE4=Lead Me On
TTITLE5=Lay Me Down (Roll Me Out To Sea)
TTITLE6=Evil Woman
TTITLE7=Anytime Babe
TTITLE8=The World Was Filled With Love
EXTD=
EXTT0=
EXTT1=
EXTT2=
EXTT3=
EXTT4=
EXTT5=
EXTT6=
EXTT7=
EXTT8=
PLAYORDER=
